<?xml version="1.0" encoding="UTF-8"?>
<svg width="44px" height="35px" viewBox="0 0 44 35" version="1.1" xmlns="http://www.w3.org/2000/svg" xmlns:xlink="http://www.w3.org/1999/xlink">
    <title>logo-surehive-icon-blue</title>
    <defs>
        <path d="M0.556335806,0 L0,0.937002557 L0.556335806,1.87316097 L1.6681395,1.87316097 L2.2244753,0.937002557 L1.6681395,0 L0.556335806,0 Z M13.6688496,0.937002557 L10.1277418,6.90427379 L10.829888,8.08776711 L9.93593183,9.59372437 L8.53077166,9.59372437 L3.56020199,17.9685013 L13.6688496,35 L18.4736468,35 L18.4736468,30.6627756 L18.4736468,20.5287975 L16.2448319,20.5287975 L16.2448319,30.6619314 L8.70956288,17.9685013 L16.2448319,5.274227 L31.31537,5.274227 L38.851507,17.9685013 L31.3292567,30.6399836 L31.3292567,14.5556172 L29.098706,14.5556172 L29.098706,30.6627756 L29.098706,35 L33.8904845,35 L44,17.9685013 L33.8904845,0.937002557 L13.6688496,0.937002557 Z M11.7151649,6.58180985 L12.4346694,5.3704597 L13.8728105,5.3704597 L14.5931829,6.58180985 L13.8728105,7.79400415 L12.4346694,7.79400415 L11.7151649,6.58180985 Z M7.58126874,12.2055135 L8.13760454,11.2693551 L9.24940824,11.2693551 L9.80487612,12.2055135 L9.24940824,13.142516 L8.13760454,13.142516 L7.58126874,12.2055135 Z M3.67997475,1.72965607 L2.95960234,2.94016208 L3.67997475,4.15235637 L5.11724791,4.15235637 L5.83762033,2.94016208 L5.11724791,1.72965607 L3.67997475,1.72965607 Z M8.18100047,2.00484781 L7.62553259,2.94016208 L8.18100047,3.87800878 L9.29367208,3.87800878 L9.84827205,2.94016208 L9.29367208,2.00484781 L8.18100047,2.00484781 Z M0.720372416,5.35188848 L0,6.56323863 L0.720372416,7.77543293 L2.15764557,7.77543293 L2.87801799,6.56323863 L2.15764557,5.35188848 L0.720372416,5.35188848 Z M5.29343538,6.56323863 L4.39861133,8.06919589 L5.29343538,9.57430901 L7.08047972,9.57430901 L7.97356793,8.06919589 L7.08047972,6.56323863 L5.29343538,6.56323863 Z M19.4569986,10.2732623 L19.4569986,30.6627756 L19.4569986,35 L21.6884172,35 L21.6884172,30.6627756 L21.6884172,10.2732623 L19.4569986,10.2732623 Z M22.6726369,17.9685013 L22.6726369,30.6627756 L22.6726369,35 L24.9014518,35 L24.9014518,30.6627756 L24.9014518,17.9685013 L22.6726369,17.9685013 Z M25.8856715,23.5727895 L25.8856715,30.6627756 L25.8856715,35 L28.1153543,35 L28.1153543,30.6627756 L28.1153543,23.5727895 L25.8856715,23.5727895 Z" id="path-1"></path>
        <linearGradient x1="93.2463728%" y1="61.9622286%" x2="3.23521205%" y2="21.5172949%" id="linearGradient-3">
            <stop stop-color="#004BFF" offset="0%"></stop>
            <stop stop-color="#3772FF" offset="42.1996382%"></stop>
            <stop stop-color="#0004F7" offset="100%"></stop>
        </linearGradient>
    </defs>
    <g id="Swap" stroke="none" stroke-width="1" fill="none" fill-rule="evenodd">
        <g id="1.3-Swap---Mobile---Expanded---Light-theme" transform="translate(-24.000000, -27.000000)">
            <g id="Group" transform="translate(20.000000, 24.000000)">
                <g id="Group-3" transform="translate(4.000000, 3.000000)">
                    <mask id="mask-2" fill="white">
                        <use xlink:href="#path-1"></use>
                    </mask>
                    <g id="Clip-2"></g>
                    <path d="M0.556335806,0 L0,0.937002557 L0.556335806,1.87316097 L1.6681395,1.87316097 L2.2244753,0.937002557 L1.6681395,0 L0.556335806,0 Z M13.6688496,0.937002557 L10.1277418,6.90427379 L10.829888,8.08776711 L9.93593183,9.59372437 L8.53077166,9.59372437 L3.56020199,17.9685013 L13.6688496,35 L18.4736468,35 L18.4736468,30.6627756 L18.4736468,20.5287975 L16.2448319,20.5287975 L16.2448319,30.6619314 L8.70956288,17.9685013 L16.2448319,5.274227 L31.31537,5.274227 L38.851507,17.9685013 L31.3292567,30.6399836 L31.3292567,14.5556172 L29.098706,14.5556172 L29.098706,30.6627756 L29.098706,35 L33.8904845,35 L44,17.9685013 L33.8904845,0.937002557 L13.6688496,0.937002557 Z M11.7151649,6.58180985 L12.4346694,5.3704597 L13.8728105,5.3704597 L14.5931829,6.58180985 L13.8728105,7.79400415 L12.4346694,7.79400415 L11.7151649,6.58180985 Z M7.58126874,12.2055135 L8.13760454,11.2693551 L9.24940824,11.2693551 L9.80487612,12.2055135 L9.24940824,13.142516 L8.13760454,13.142516 L7.58126874,12.2055135 Z M3.67997475,1.72965607 L2.95960234,2.94016208 L3.67997475,4.15235637 L5.11724791,4.15235637 L5.83762033,2.94016208 L5.11724791,1.72965607 L3.67997475,1.72965607 Z M8.18100047,2.00484781 L7.62553259,2.94016208 L8.18100047,3.87800878 L9.29367208,3.87800878 L9.84827205,2.94016208 L9.29367208,2.00484781 L8.18100047,2.00484781 Z M0.720372416,5.35188848 L0,6.56323863 L0.720372416,7.77543293 L2.15764557,7.77543293 L2.87801799,6.56323863 L2.15764557,5.35188848 L0.720372416,5.35188848 Z M5.29343538,6.56323863 L4.39861133,8.06919589 L5.29343538,9.57430901 L7.08047972,9.57430901 L7.97356793,8.06919589 L7.08047972,6.56323863 L5.29343538,6.56323863 Z M19.4569986,10.2732623 L19.4569986,30.6627756 L19.4569986,35 L21.6884172,35 L21.6884172,30.6627756 L21.6884172,10.2732623 L19.4569986,10.2732623 Z M22.6726369,17.9685013 L22.6726369,30.6627756 L22.6726369,35 L24.9014518,35 L24.9014518,30.6627756 L24.9014518,17.9685013 L22.6726369,17.9685013 Z M25.8856715,23.5727895 L25.8856715,30.6627756 L25.8856715,35 L28.1153543,35 L28.1153543,30.6627756 L28.1153543,23.5727895 L25.8856715,23.5727895 Z" id="Fill-1" fill="url(#linearGradient-3)" mask="url(#mask-2)"></path>
                </g>
            </g>
        </g>
    </g>
</svg>